<svg width="375" height="331" viewBox="0 0 375 331" fill="none" xmlns="http://www.w3.org/2000/svg">
<path d="M313.317 266.12C347.637 241.48 366.117 205.4 366.117 159.2C366.117 61.08 297.037 0.799981 183.517 0.799981C69.9972 0.799981 0.917188 60.64 0.917188 159.2C0.917188 269.2 85.8372 317.6 202.877 317.6C281.637 317.6 329.597 321.56 374.917 330.8V273.6C357.317 270.08 333.557 268.32 313.757 267.88L313.317 266.12ZM71.3172 159.2C71.3172 95.84 110.477 62.4 183.517 62.4C256.557 62.4 295.717 95.84 295.717 159.2C295.717 222.56 256.997 256 183.517 256C110.037 256 71.3172 222.56 71.3172 159.2Z" fill="black"/>
</svg>
