<svg width="292" height="312" viewBox="0 0 292 312" fill="none" xmlns="http://www.w3.org/2000/svg">
<path d="M3.48608 291C36.4861 306 90.4861 312 150.486 312C255.486 312 291.486 261 291.486 222C291.486 181.2 266.886 147 194.286 129.6L144.486 117.6C122.886 112.2 88.6861 107.4 88.6861 93.6C88.6861 77.4 108.486 72 144.486 72C187.086 72 228.486 78 270.486 96V21C237.486 7.19998 189.486 -3.00407e-05 135.486 -3.00407e-05C42.4861 -3.00407e-05 0.486085 48 0.486085 90C0.486085 129 26.8861 163.8 97.6861 181.2L148.686 193.8C170.286 199.2 204.486 203.4 204.486 218.4C204.486 234.6 186.486 240 147.486 240C96.4861 240 47.2861 235.8 3.48608 216V291Z" fill="black"/>
</svg>
