<svg id="Capa_1" enable-background="new 0 0 512 512" height="512" viewBox="0 0 512 512" width="512" xmlns="http://www.w3.org/2000/svg"><g><g><path d="m329.41 216.32c-11.17-23.82-35.36-40.32-63.41-40.32-10.26 0-19.95 2.25-28.69 6.26 11.2 7.09 18.69 19.51 18.69 33.74 0 1.25-.07 2.47-.18 3.68z" fill="#ffda8f"/><path d="m408.4 219.47.01-.07c-15.22-2.11-32.61-3.4-52.41-3.4-69.662 0-183.029 7.707-245.41 21.43-8.8 1.93-17.97-.87-24.17-7.4-20.33-21.42-51.18-34.03-76.42-34.03l34.29 60-34.29 60c29.36 0 56.94-12.45 76.29-33.61 6.2-6.77 15.58-9.72 24.55-7.73 60.103 13.36 178.826 21.34 245.16 21.34 19.8 0 37.19-1.29 52.41-3.4l-.01-.07z" fill="#ff9256"/><g fill="#ffda8f"><path d="m408.41 219.4c69.65 9.66 93.59 36.6 93.59 36.6s-23.94 26.94-93.59 36.6l-.01-.07c-7.78-10.11-12.4-22.78-12.4-36.53s4.62-26.42 12.4-36.53z"/><path d="m316 276h20c0 33.077-26.797 60-60 60h-20c0-33.211 26.931-60 60-60z"/></g></g><g><circle cx="436" cy="256" r="10"/><circle cx="176" cy="227" r="10"/><path d="m409.783 209.495c-16.727-2.319-34.822-3.495-53.783-3.495-6.544 0-13.46.067-20.611.197-14.164-24.614-40.716-40.197-69.389-40.197-11.434 0-22.489 2.413-32.86 7.17-3.333 1.529-5.562 4.76-5.808 8.418s1.53 7.159 4.629 9.12c7.159 4.532 11.967 11.644 13.506 19.676-8.619.629-17.188 1.316-25.577 2.054-5.501.484-9.568 5.336-9.085 10.838.484 5.502 5.347 9.574 10.839 9.084 48.603-4.276 97.762-6.36 134.356-6.36 12.472 0 24.513.544 35.992 1.596-3.941 8.849-5.992 18.453-5.992 28.404s2.051 19.555 5.992 28.404c-11.479 1.052-23.52 1.596-35.992 1.596-3.54 0-7.121-.02-10.717-.056.467-3.279.717-6.597.717-9.944 0-5.523-4.478-10-10-10h-20c-17.014 0-33.118 6.055-45.847 17.121-51.131-3.162-117.98-9.517-157.147-18.223-12.436-2.76-25.498 1.356-34.096 10.744-13.477 14.737-31.312 24.673-50.641 28.544l24.703-43.224c1.757-3.075 1.757-6.849 0-9.924l-24.447-42.776c18.646 4.38 37.512 14.818 50.643 28.653 8.553 9.008 21.417 12.945 33.57 10.282 6.082-1.338 12.949-2.669 20.412-3.955 5.442-.938 9.095-6.11 8.156-11.553-.938-5.442-6.105-9.089-11.553-8.157-7.763 1.338-14.934 2.728-21.306 4.13-5.357 1.173-11.016-.557-14.775-4.517-21.416-22.564-54.26-37.145-83.672-37.145-3.564 0-6.86 1.898-8.649 4.981-1.789 3.083-1.802 6.886-.033 9.981l31.455 55.038-31.455 55.038c-1.769 3.095-1.756 6.897.033 9.981 1.789 3.083 5.085 4.981 8.649 4.981 31.751 0 62.248-13.436 83.665-36.856 3.779-4.127 9.53-5.938 15.005-4.722 31.934 7.098 85.605 13.584 146.03 17.736-5.673 10.241-8.7 21.801-8.7 33.842 0 5.523 4.478 10 10 10h20c27.28 0 51.865-15.858 63.311-40.13 5.601.085 11.191.13 16.689.13 18.961 0 37.056-1.176 53.784-3.495 72.468-10.051 98.613-38.65 99.69-39.863 3.367-3.789 3.367-9.497 0-13.285-1.076-1.212-27.222-29.811-99.691-39.862zm-144.276-.457c-1.137-8.118-4.238-15.742-8.996-22.279 3.114-.505 6.282-.76 9.489-.76 17.614 0 34.16 7.844 45.413 20.826-14.809.51-30.323 1.258-45.906 2.213zm57.722 83.407c-.001.002-.002.005-.003.007-6.984 20.06-25.962 33.548-47.226 33.548h-9.007c4.65-23.054 25.107-40.01 49.007-40.01h9.001c-.444 2.188-1.035 4.343-1.772 6.455zm89.919-10.669c-4.687-7.744-7.148-16.549-7.148-25.776s2.461-18.032 7.148-25.776c39.248 6.285 62.024 18.265 73.045 25.772-11.046 7.528-33.819 19.499-73.045 25.78z"/></g></g></svg>