<svg id="Capa_1" enable-background="new 0 0 511.991 511.991" height="512" viewBox="0 0 511.991 511.991" width="512" xmlns="http://www.w3.org/2000/svg"><g><g><g fill="#8690a6"><path d="m220.92 330.696 15.08 60.3 57.78-43.34z"/><path d="m139.21 300.646 16.79 50.35 41.73-27.83z"/><path d="m156 190.996-16.79 50.36 58.53-22.53z"/><path d="m336 110.996-27.15 81.45v.01l78.9 4.79z"/><path d="m328.53 350.876-12.53 50.12c36.39 0 67.09-24.29 76.81-57.54z"/></g><path d="m502 270.996c-1.119.611-54.232 80-166 80-69.371 0-156.366-31.619-219.41-60.3-.32.19-106.59 40.3-106.59 40.3l20-60-20-60s78.13 28.85 106.65 40.28c63.093-28.695 150.016-60.28 219.35-60.28 112.459 0 164.281 79.073 166 80z" fill="#ffda8f"/><path d="m236 150.996-15.08 60.3 72.86-16.96z" fill="#8690a6"/></g><g><circle cx="436" cy="270.996" r="10"/><path d="m345.487 267.834c-1.747-5.24-7.411-8.069-12.649-6.325l-60 20c-4.083 1.361-6.838 5.183-6.838 9.487s2.754 8.125 6.838 9.487l60 20c5.25 1.749 10.906-1.095 12.649-6.325 1.747-5.239-1.085-10.902-6.325-12.649l-31.54-10.513 31.54-10.513c5.24-1.747 8.072-7.41 6.325-12.649z"/><circle cx="446" cy="221.996" r="10"/><path d="m510.2 276.721c.01-.015.017-.031.027-.045 2.404-3.475 2.305-8.037-.01-11.373-.011-.016-.018-.033-.029-.049-.297-.424-7.445-10.537-21.327-23.585-4.024-3.783-10.353-3.587-14.135.437s-3.587 10.353.437 14.135c1.818 1.709 3.49 3.351 5.047 4.925-4.667.846-8.208 4.921-8.208 9.831 0 4.903 3.53 8.973 8.186 9.828-11.233 11.334-29.352 26.797-54.123 39.194-12.805-13.045-20.065-30.595-20.065-49.023 0-5.918.742-11.811 2.206-17.514 1.373-5.35-1.851-10.799-7.2-12.172-5.347-1.375-10.799 1.85-12.172 7.2-1.88 7.327-2.834 14.892-2.834 22.486 0 21.149 7.42 41.41 20.718 57.444-20 7.472-41.129 11.585-62.572 12.404-69.314 2.734-160.509-30.634-223.416-59.25-2.545-1.158-5.436-1.189-7.978-.132-2.929 1.148-52.858 20.008-86.619 32.755l11.073-33.221h38.794c5.523 0 10-4.477 10-10s-4.477-10-10-10h-38.792l-11.124-33.371c25.07 9.32 67.596 25.219 86.846 32.933 2.533 1.016 5.373.951 7.859-.179 61.572-28.001 147.485-59.383 215.21-59.383 22.136 0 44.635 3.499 66.184 10.947 5.22 1.804 10.914-.966 12.718-6.186s-.965-10.914-6.186-12.718c-4.755-1.643-9.615-3.128-14.493-4.441l-49.649-82.748c-2.009-3.349-5.783-5.22-9.666-4.795-3.882.426-7.161 3.073-8.396 6.778l-25.131 75.394c-1.63.197-3.266.403-4.91.627l-54.471-40.858c-2.68-2.01-6.189-2.546-9.346-1.424-3.157 1.121-5.543 3.748-6.356 6.998l-13.716 54.845c-4.397 1.385-8.874 2.845-13.389 4.362l-37.647-25.101c-2.593-1.729-5.843-2.15-8.792-1.139-2.948 1.011-5.256 3.339-6.242 6.296l-15.37 46.1c-5.004 2.155-9.94 4.323-14.745 6.482-30.981-12.221-102.186-38.524-102.935-38.8-3.607-1.332-7.659-.478-10.421 2.198-2.762 2.675-3.746 6.697-2.53 10.345l18.946 56.838-18.942 56.838c-1.22 3.66-.226 7.696 2.556 10.37 2.79 2.683 6.863 3.505 10.462 2.148 69.416-26.2 93.836-35.417 102.72-38.833 4.948 2.225 9.925 4.398 14.886 6.53l15.377 46.112c.986 2.957 3.294 5.285 6.242 6.295 2.939 1.009 6.192.595 8.792-1.14l37.64-25.102c4.517 1.517 8.995 2.979 13.395 4.364l13.716 54.845c.813 3.25 3.199 5.877 6.356 6.998 3.143 1.116 6.654.595 9.346-1.424l54.476-40.862c6.648.902 13.136 1.592 19.414 2.068l-9.592 38.369c-.747 2.987-.076 6.152 1.82 8.58 1.895 2.427 4.803 3.846 7.882 3.846 38.979 0 72.029-24.68 84.642-59.398 71.689-21.619 108.01-72.666 109.556-74.879zm-171.588-141.937 29.047 48.412c-10.174-1.426-20.538-2.201-31.658-2.201-4.192 0-8.51.122-12.907.344zm-96.564 33.248 27.305 20.481c-11.077 2.27-22.603 5.053-34.511 8.332zm-80.702 38.547 14.289 9.527c-6.611 2.449-13.293 5.017-20.032 7.7zm-.001 128.833-5.741-17.217c6.729 2.677 13.408 5.243 20.022 7.693zm80.703 38.547-7.205-28.812c11.902 3.278 23.429 6.061 34.51 8.331zm87.074 15.78 7.186-28.745c2.991-.004 5.893-.059 8.613-.166 10.386-.396 20.673-1.509 30.766-3.295-10.264 16.644-27.233 28.47-46.565 32.206z"/></g></g></svg>