<svg id="Capa_1" enable-background="new 0 0 512 512" height="512" viewBox="0 0 512 512" width="512" xmlns="http://www.w3.org/2000/svg"><g><g fill="#eefaff"><circle cx="326" cy="259" r="60"/><circle cx="326" cy="113" r="40"/><circle cx="226" cy="422" r="80"/><circle cx="246" cy="30" r="20"/><circle cx="226" cy="153" r="20"/><circle cx="166" cy="259" r="40"/></g><g><path d="m226 372c-5.522 0-10 4.477-10 10s4.478 10 10 10c16.542 0 30 13.458 30 30 0 5.523 4.478 10 10 10s10-4.477 10-10c0-27.57-22.43-50-50-50z"/><path d="m396 259c0-38.598-31.402-70-70-70s-70 31.402-70 70 31.402 70 70 70 70-31.402 70-70zm-70 50c-27.57 0-50-22.43-50-50s22.43-50 50-50 50 22.43 50 50-22.43 50-50 50z"/><path d="m326 229c-5.522 0-10 4.477-10 10s4.478 10 10 10c5.514 0 10 4.486 10 10 0 5.523 4.478 10 10 10s10-4.477 10-10c0-16.542-13.458-30-30-30z"/><path d="m116 259c0 27.57 22.43 50 50 50s50-22.43 50-50-22.43-50-50-50-50 22.43-50 50zm80 0c0 16.542-13.458 30-30 30s-30-13.458-30-30 13.458-30 30-30 30 13.458 30 30z"/><path d="m326 63c-27.57 0-50 22.43-50 50s22.43 50 50 50 50-22.43 50-50-22.43-50-50-50zm0 80c-16.542 0-30-13.458-30-30s13.458-30 30-30 30 13.458 30 30-13.458 30-30 30z"/><path d="m246 0c-16.542 0-30 13.458-30 30s13.458 30 30 30 30-13.458 30-30-13.458-30-30-30zm0 40c-5.514 0-10-4.486-10-10s4.486-10 10-10 10 4.486 10 10-4.486 10-10 10z"/><path d="m196 153c0 16.542 13.458 30 30 30s30-13.458 30-30-13.458-30-30-30-30 13.458-30 30zm30-10c5.514 0 10 4.486 10 10s-4.486 10-10 10-10-4.486-10-10 4.486-10 10-10z"/><circle cx="283" cy="479" r="10"/><path d="m301.98 449.042c5.383 1.187 10.728-2.222 11.916-7.616 1.396-6.343 2.104-12.879 2.104-19.426 0-49.626-40.374-90-90-90s-90 40.374-90 90 40.374 90 90 90c6.548 0 13.084-.708 19.427-2.104 5.394-1.188 8.803-6.522 7.615-11.917-1.187-5.394-6.517-8.801-11.916-7.616-4.933 1.086-10.022 1.637-15.126 1.637-38.598 0-70-31.402-70-70s31.402-70 70-70 70 31.402 70 70c0 5.104-.551 10.193-1.637 15.126-1.186 5.394 2.224 10.729 7.617 11.916z"/></g></g></svg>