<svg id="Capa_1" enable-background="new 0 0 512.127 512.127" height="512" viewBox="0 0 512.127 512.127" width="512" xmlns="http://www.w3.org/2000/svg"><g><g><path d="m488.46 365.211c-10.27-10.44-24.87-14.06-38.13-10.8-17.94-21.3-39.71-38.81-63.87-51.85 21.647-14.495 35.54-39.074 35.54-66.52-13.47 0-140.109 0-161.43 0l22.02 123.47h.01l27.4 36.53v40l40-60-43.75-58.34c44.86 6.18 86.38 29.25 115.22 64.55-3.82 13.39-.52 28.4 9.94 39.05 15.49 15.75 70.59 14.74 70.59 14.74s1.95-55.08-13.54-70.83z" fill="#ff9256"/><circle cx="482" cy="176.041" fill="#eefaff" r="20"/><circle cx="402" cy="176.041" fill="#eefaff" r="20"/><path d="m251.63 228.621c30.332 22.165 38.37 50.508 38.37 87.42 0 66.638-45.397 120-140 120-60.95 0-140-39.4-140-160 0-120 100-200 200-200 38.56 0 81.3 10.89 120 34.2v5.8c0 51.64-32.61 95.66-78.37 112.58z" fill="#ffda8f"/></g><g><circle cx="70" cy="134.041" r="10"/><path d="m495.589 358.198c-10.827-11.005-26.239-16.33-41.399-14.61-14.594-16.468-31.407-30.658-50.151-42.358 4.804-4.579 9.102-9.686 12.788-15.189h25.173c5.523 0 10-4.478 10-10s-4.477-10-10-10h-15.151c2.917-8.261 4.622-16.939 5.039-25.745l37.175-37.176c3.989 1.91 8.385 2.921 12.937 2.921 16.542 0 30-13.458 30-30s-13.458-30-30-30-30 13.458-30 30c0 4.552 1.01 8.948 2.921 12.936l-37.063 37.064h-21.984l6.67-20.014c16.29-.292 29.456-13.626 29.456-29.986 0-16.542-13.458-30-30-30s-30 13.458-30 30c0 9.599 4.537 18.154 11.574 23.649l-8.782 26.351h-95.475c36.381-22.919 60.683-63.616 60.683-110v-5.8c0-3.507-1.836-6.757-4.84-8.566-38.15-22.979-82.599-35.634-125.16-35.634-38.251 0-76.273 10.913-109.955 31.56-4.708 2.886-6.186 9.043-3.3 13.752 2.886 4.708 9.043 6.187 13.752 3.299 30.535-18.717 64.942-28.61 99.502-28.61 37.197 0 76.04 10.598 110 29.932v.068c0 44.134-26.767 84.208-67.107 101.311-28.775-18.828-64.501-22.541-96.689-9.767-21.243 8.423-38.294 25.969-46.783 48.141-11.908 31.104-8.387 61.441 9.661 83.231 16.346 19.735 42.151 29.175 67.341 24.636 27.331-4.924 46.964-26.258 50.019-54.35 2.07-19.023-4.916-36.156-19.166-47.005-23.068-17.56-58.844-11.827-70.606 15.433-4.37 10.13-4.535 21.355-.464 31.61 2.039 5.132 7.852 7.644 12.984 5.604 5.133-2.038 7.642-7.851 5.604-12.984-2.101-5.29-2.016-11.081.239-16.307 6.321-14.648 26.737-17.635 40.127-7.441 8.537 6.499 12.691 17.042 11.398 28.928-2.072 19.061-15.293 33.517-33.682 36.829-18.098 3.267-36.642-3.523-48.392-17.709-13.508-16.31-15.776-38.798-6.386-63.324 6.493-16.957 19.424-30.334 35.48-36.7 48.506-19.252 116.423 6.493 116.423 89.863 0 61.65-41.793 110-130 110-59.97 0-130-39.284-130-150 0-37.382 9.931-71.734 29.517-102.102 2.993-4.642 1.658-10.83-2.984-13.823-4.64-2.993-10.831-1.658-13.824 2.983-21.398 33.178-32.709 72.233-32.709 112.942 0 56.739 17.432 102.599 50.412 132.62 26.097 23.755 62.395 37.38 99.588 37.38 55.706 0 108.228-18.023 134.738-67.014l15.262 20.348v36.666c0 4.406 2.885 8.294 7.102 9.571 4.218 1.277 8.774-.358 11.218-4.024l40-60c2.352-3.527 2.224-8.154-.32-11.547l-27.709-36.949c31.115 9.212 58.942 27.068 80.346 51.823-2.638 15.684 2.35 31.901 13.643 43.398 15.226 15.48 57.39 18.188 77.903 17.727 5.313-.097 9.623-4.333 9.811-9.645.712-19.952-.976-62.509-16.405-78.197zm-13.589-192.157c5.514 0 10 4.486 10 10s-4.486 10-10 10c-5.522 0-10-4.479-10-10 0-5.514 4.486-10 10-10zm-80 0c5.514 0 10 4.486 10 10s-4.486 10-10 10-10-4.486-10-10 4.486-10 10-10zm-64.245 210.34-17.755 26.633v-6.973c0-2.164-.702-4.27-2-6l-24.245-32.323c3.187-10.086 5.16-20.69 5.904-31.677h.341zm-38.096-70.34c-1.91-32.376-7.095-44.916-17.415-60.01h129.04c-.999 6.934-3.046 13.688-6.046 20.01h-43.238c-5.523 0-10 4.478-10 10s4.477 9.99 10 9.99l28.951.01c-13.628 13.358-31.221 20-48.951 20zm119.403 58.441c-16.404-17.09-35.711-30.838-56.96-40.702 8.612-1.965 16.894-5.198 24.613-9.624 17.423 10.009 33.132 22.282 46.887 36.616-3.13 1.944-6.065 4.217-8.719 6.826-2.154 2.115-4.092 4.427-5.821 6.884zm33.747 35.78 24.357 24.774c-16.573-1.573-32.977-5.004-38.622-10.743-11.485-11.693-11.571-30.715.356-42.431 12.083-11.881 31.095-11.161 42.43.36 5.63 5.725 8.781 22.176 10.077 38.772l-24.337-24.754c-3.873-3.939-10.204-3.991-14.142-.12-3.937 3.872-3.991 10.203-.119 14.142z"/><path d="m52.402 245.742c5.381 1.34 10.793-1.933 12.129-7.273 18.474-73.81 87.164-112.428 145.469-112.428 5.523 0 10-4.478 10-10s-4.477-10-10-10c-35.449 0-71.379 11.995-101.172 33.776-32.207 23.545-54.233 55.979-63.699 93.796-1.34 5.358 1.915 10.787 7.273 12.129z"/></g></g></svg>