<svg id="Capa_1" enable-background="new 0 0 512.001 512.001" height="512" viewBox="0 0 512.001 512.001" width="512" xmlns="http://www.w3.org/2000/svg"><g><g><path d="m221.99 14.4c0-1.49.11-2.96.32-4.4-45.531 13.233-81.55 50.869-94.76 96.25-10.559 37.319-5.586 78.812 10.92 109.68l48.01-.37 65.51-169.56c-16.57 0-30-15.03-30-31.6z" fill="#ffda8f"/><path d="m305.29 192.84-2.07.15c2.04 7.17 1.13 15.13-3.15 21.92-12.837 20.348-18.08 40.722-18.08 55.09 0 18.804 7.6 37.824 17.42 53.95 4.73 7.76 4.26 21.36-.68 29.83 21.377-23.111 43.26-52.177 43.26-83.78 0-27.677-18.34-56.288-36.7-77.16z" fill="#ffda8f"/><path d="m131.99 260c-4.987-29.969 9.951-49.892 10-50l44.49 5.56c-18.923-21.765-28.628-55.878-22.81-88.17 7.247-40.505 41.273-75.909 88.36-80.96 49.51-5.45 76.58 22.28 66.12 52.49l71.85 28.51c-8.21 20.51-31.49 30.49-52.01 22.28l-44.3-17.48c-11.65 8.65-26.08 13.77-41.7 13.77-.62 0-1.25-.01-1.87-.02 18.76 11.57 38.69 28.12 55.17 46.86l-2.07.15c2.04 7.17 1.13 15.13-3.15 21.92-12.836 20.348-18.08 40.722-18.08 55.09 0 18.804 7.6 37.824 17.42 53.95 4.73 7.76 4.26 21.36-.68 29.83-26.73 28.9-61.25 57.12-89.75 85.62-24.5 24.51.28 61.71 31.88 62.59-19.32-.26-36.46-7.19-49.8-18.27-79.06-65.74 71.63-128.67 25.74-228.53l-54.81 54.81s-25-20-30-50z" fill="#b8ecbc"/></g><g><circle cx="261.99" cy="86" r="10"/><path d="m228.876 2.458c-2.566-2.234-6.093-3.01-9.357-2.061-48.201 14.008-87.259 53.78-101.591 103.13-10.681 37.75-6.567 79.845 9.429 112.612-4.105 9.724-8.475 25.641-5.268 45.26.002.017.027.179.037.244 5.565 33.391 32.474 55.251 33.617 56.165 3.979 3.183 9.715 2.866 13.318-.737l43.783-43.782c4.342 15.729 3.736 31.517-1.746 48.716-1.677 5.263 1.229 10.888 6.491 12.564 5.273 1.682 10.891-1.24 12.564-6.49 8.583-26.931 7.188-52.139-4.267-77.064-1.366-2.974-4.102-5.09-7.322-5.667-3.222-.577-6.521.458-8.835 2.771l-47.893 47.893c-5.611-6.028-13.5-16.114-17.736-28.732l30.315-7.579c5.358-1.339 8.616-6.769 7.276-12.127-1.339-5.358-6.772-8.619-12.126-7.275l-28.571 7.143c.076-12.153 3.651-21.517 6.252-26.707l73.503 9.188c5.479.684 10.478-3.202 11.164-8.682.685-5.48-3.202-10.479-8.682-11.164l-31.56-3.945c-15.891-20.203-23.023-49.974-18.156-76.982 6.555-36.628 37.383-68.258 79.61-72.78 23.156-2.553 42.527 2.883 51.823 14.529 5.622 7.045 6.92 15.603 3.754 24.749-1.751 5.056.788 10.593 5.761 12.566l60.923 24.174c-8.164 9.256-21.591 12.871-33.725 8.02l-44.3-17.479c-3.214-1.27-6.856-.789-9.631 1.272-10.398 7.719-22.756 11.799-35.74 11.799-.567 0-1.145-.01-1.713-.019-4.488-.028-8.493 2.875-9.756 7.195-1.262 4.321.518 8.952 4.35 11.315 17.071 10.528 34.082 24.617 48.481 40.075.264 1.639 2.682 7.993-1.74 15.008-10.95 17.357-19.622 40.059-19.622 60.425 0 20.749 8.132 41.501 18.882 59.155 2.607 4.276 2.384 13.232-.345 18.757-14.89 15.987-32.569 32.146-49.684 47.783-13.098 11.967-26.641 24.341-38.936 36.636-10.045 10.05-14.352 23.104-12.33 36.282-17.324-18.742-13.854-36.496-1.964-59.514 2.535-4.907.611-10.939-4.295-13.475-4.905-2.533-10.939-.61-13.474 4.295-9.286 17.978-12.989 32.015-12.006 45.515 2.256 31.012 36.981 65.792 82.598 66.545.049.001.097.006.145.007.033.001.065.001.097.001 49.99.781 82.369-32.422 81.245-64.16-.757-21.427-16.645-35.826-39.533-35.826-5.522 0-10 4.478-10 10s4.478 10 10 10c12.051 0 19.175 6.027 19.547 16.535.677 19.109-19.851 42.919-60.827 43.457-12.849-.37-25.579-9.195-30.276-20.995-2.508-6.299-3.638-15.667 5.217-24.525 11.974-11.975 25.348-24.194 38.282-36.012 17.032-15.561 34.613-31.631 49.823-47.842 2.178-1.586 47.834-47.418 47.834-92.618 0-30.363-19.132-60.961-39.19-83.764-10.8-12.281-23.244-23.928-36.285-34.051 6.466-2.078 12.657-4.991 18.458-8.699l39.303 15.508c25.603 10.244 54.762-2.249 65.009-27.849 2.056-5.137-.453-10.969-5.596-13.011l-63.807-25.318c1.761-12.395-1.451-24.555-9.303-34.393-13.346-16.722-37.525-24.754-66.63-22.229-.634-.125-1.289-.194-1.959-.194-10.654 0-20-10.093-20-21.6 0-.982.072-1.979.215-2.958.491-3.366-.764-6.75-3.329-8.984zm-93.582 113.972 19.21 5.766c-.245 1.14-.471 2.281-.675 3.421-1.775 9.853-2.261 19.946-1.473 30.115l-19.805 3.96c-1.262-14.66-.338-29.357 2.743-43.262zm7.935 83.647c-.384-.048-.767-.063-1.149-.067-2.646-6.515-4.811-13.418-6.437-20.543l19.87-3.974c2.362 9.689 5.855 18.948 10.339 27.412zm17.312-96.951-19.337-5.804c5.213-13.105 12.543-25.42 21.628-36.336l14.58 14.58c-6.977 8.35-12.681 17.67-16.871 27.56zm31.02-41.697-14.831-14.831c10.897-9.695 23.203-17.412 36.337-22.792 1.683 7.247 5.255 13.824 10.114 19.12-11.424 4.278-22.084 10.513-31.62 18.503zm118.896 262.703c-.683-1.921-1.505-3.74-2.506-5.382-3.848-6.32-7.011-12.589-9.497-18.76h26.463c-3.467 7.689-8.247 15.669-14.46 24.142zm21.533-54.132c0 3.279-.286 6.623-.836 10h-38.367c-.525-3.426-.797-6.771-.797-10 0-2.358.189-5.737.873-10h38.225c.594 3.436.902 6.782.902 10zm-23.461-49.757c.878-1.393 1.645-2.839 2.324-4.319 5.785 8.17 10.475 16.255 13.945 24.076h-26.355c2.621-6.654 5.989-13.263 10.086-19.757z"/><circle cx="201.99" cy="366" r="10"/></g></g></svg>