<svg id="Capa_1" enable-background="new 0 0 512 512" height="512" viewBox="0 0 512 512" width="512" xmlns="http://www.w3.org/2000/svg"><g><g><path d="m176 236c-24.76-37.13-66.28-59.58-110.85-59.99 17.12.46 30.85 14.48 30.85 31.71 0 18.11 7.19 35.47 20 48.28-12.81 12.81-20 30.17-20 48.28 0 17.23-13.73 31.25-30.85 31.71 44.57-.41 86.09-22.86 110.85-59.99h23.57c9.44 0 18.73 1.99 27.26 5.77l3.99-59.82c-16.76 9.12-36.99 14.05-54.82 14.05z" fill="#ffda8f"/><path d="m295.04 111.08-18.27 303.15c26.6-11.97 52.5-25.55 77.54-40.66l3.02-238.27z" fill="#ffda8f"/><path d="m388.81 147.54-31.48-12.24c3.4 17.05 6.38 49.64-8.66 85.51-8.62 20.56-8.7 44.15-.21 64.76 11.06 26.91 13.31 55.35 6.68 84.53-.26 1.16-.53 2.31-.83 3.46 9.35-5.63 18.58-11.49 27.69-17.56 13.98-3.49 27.34-8.62 39.86-15.19 13-6.83 25.09-15.21 36-24.95z" fill="#91def5"/><path d="m502 256-3.12 6.24c-10.27 20.55-24.26 38.68-41.02 53.62-31.2-2.13-55.86-28.11-55.86-59.86 0-20 16.65-54.34-13.19-108.46l14.24 5.54c37.35 14.52 66.28 44.91 78.95 82.92z" fill="#ffda8f"/><path d="m308.12 144.24c1.56 7.42 5.54 30.76-5.57 57.25-13.82 32.96-13.94 70.07-.34 103.12 6.19 15.02 8.99 33.21 4.17 54.43-4.46 19.69-15.21 38.29-29.61 55.19-49.64 22.34-101.73 39.09-155.34 49.88 63.91-13.34 208.79-106.95 118.51-174.65-4.09-3.07-8.49-5.65-13.11-7.69-3.1-7.81-4.83-16.55-4.83-25.77 0-12.64 3.26-24.37 8.82-34.04 7.31-3.96 13.96-8.74 19.46-14.24 38.69-38.69 29.62-102.53-105.4-155.04l150.16 58.39v.01c6.31 10.65 10.67 21.7 13.08 33.16z" fill="#91def5"/></g><g><circle cx="442" cy="256" r="10"/><path d="m64.28 326h-54.28c-5.522 0-10 4.478-10 10s4.478 10 10 10h54.28c45.141 0 89.225-21.604 116.949-60h18.341c12.744 0 24.701 4.205 34.371 11.46 20.142 15.104 27.905 31.563 23.735 50.314-4.721 21.226-24.674 45.18-56.184 67.45-26.78 18.928-59.005 34.272-82.099 39.095-.017.004-59.356 11.875-59.356 11.875-5.415 1.083-8.928 6.352-7.844 11.768.951 4.753 5.126 8.04 9.795 8.04.65 0 1.311-.063 1.973-.196l58.357-11.675c.039-.007.079-.009.118-.016.337-.063.678-.135 1.057-.219 93.75-18.881 182.814-55.714 262.622-108.625 8.125-2.109 16.106-4.78 23.888-7.954-9.667 54.964-53.503 99.457-109.65 108.819-5.448.909-9.128 6.062-8.22 11.509.909 5.448 6.061 9.128 11.509 8.22 69.259-11.549 122.048-68.746 127.837-138.911 11.833-6.674 22.926-14.606 33.033-23.628 17.971-16.021 32.543-35.068 43.31-56.613l3.12-6.24c1.925-3.85 1.17-8.499-1.873-11.543l-18.362-18.361c-14.027-39.894-44.537-71.453-84.033-86.807-.161-.062-300.861-117.006-301.051-117.08-5.146-2.002-10.942.547-12.944 5.694-2.003 5.146.547 10.942 5.694 12.944l42.793 16.642c.03.012.057.027.087.039 69.164 26.897 111.049 59.761 117.939 92.535 4.326 20.575-6.305 36.434-15.985 46.113-15.179 15.182-40.652 23.988-62.086 25.204-27.228-37.617-70.771-59.853-117.231-59.853h-53.89c-5.522 0-10 4.478-10 10s4.478 10 10 10c0 0 54.575-.01 54.882-.004 11.842.318 21.118 9.867 21.118 21.724 0 17.728 5.855 34.558 16.649 48.28-10.794 13.723-16.649 30.553-16.649 48.281 0 11.799-9.263 21.65-21.72 21.719zm408.233-86.838c.491 1.473 1.318 2.812 2.416 3.909l14.903 14.903c-8.958 17.868-20.85 33.807-35.381 47.447-24.11-3.663-42.451-24.617-42.451-49.421 0-3.684.774-8.501 1.671-14.08 2.831-17.611 6.835-42.573-5.266-75.614 30.28 14.573 53.379 40.667 64.108 72.856zm-114.621-14.485c11.894-28.366 13.186-54.87 11.65-73.897l12.199 4.744c19.554 37.306 15.311 63.763 12.184 83.223-1.033 6.424-1.925 11.973-1.925 17.253 0 29.018 17.94 54.269 43.538 64.784-17.138 11.987-36.052 20.544-55.96 25.514-1.112.277-2.169.744-3.123 1.38-2.795 1.862-5.605 3.697-8.419 5.516 2.537-24.539-.901-48.492-10.33-71.432-7.479-18.157-7.411-38.964.186-57.085zm-119.64 4.564c7.304-4.225 13.723-9.074 19.099-14.45 18.622-18.623 26.228-41.483 21.415-64.371-2.69-12.796-9.868-28.366-26.104-45.1l35.43 13.778c4.838 8.775 8.288 17.908 10.242 27.199 2.06 9.8 4.148 29.499-5.006 51.326-1.476 3.517-2.828 7.141-4.02 10.77-1.725 5.247 1.132 10.897 6.379 12.621 5.258 1.729 10.902-1.144 12.621-6.379 1.027-3.126 2.192-6.247 3.463-9.276 11.252-26.829 8.674-51.097 6.135-63.176-.91-4.325-2.098-8.612-3.525-12.852l34.082 13.253c2.552 16.459 3.632 44.198-9.015 74.36-9.64 22.993-9.725 49.395-.236 72.429 10.165 24.734 12.288 50.888 6.33 77.774-12.969 7.722-26.236 15.063-39.705 21.976 4.731-9.24 8.184-18.548 10.295-27.867 4.771-21.008 3.198-41.349-4.673-60.447-.552-1.342-1.09-2.718-1.601-4.092-1.923-5.178-7.678-7.814-12.856-5.892-5.177 1.923-7.814 7.679-5.892 12.856.59 1.588 1.213 3.18 1.854 4.74 6.271 15.215 7.503 31.5 3.662 48.41-3.694 16.309-12.462 32.852-26.041 49.199-16.466 7.347-33.22 14.071-50.208 20.162 23.621-17.849 50.095-43.829 56.821-74.076 4.105-18.461 2.015-45.704-31.256-70.654-3.502-2.628-7.215-4.951-11.077-6.933-1.893-5.873-2.865-12.086-2.865-18.529 0-9.561 2.159-18.753 6.252-26.759zm-70.571 12.307c1.854 2.781 4.977 4.452 8.319 4.452 12.324 0 25.28-2.111 37.573-5.983-1.037 5.198-1.573 10.553-1.573 15.983 0 3.771.256 7.49.753 11.145-4.329-.748-8.727-1.145-13.183-1.145h-23.57c-3.343 0-6.465 1.671-8.32 4.452-15.657 23.48-38.506 40.6-64.575 49.227 1.865-4.758 2.895-9.948 2.895-15.399 0-15.565 6.063-30.201 17.071-41.209 3.905-3.905 3.905-10.237 0-14.143-11.008-11.007-17.071-25.643-17.071-41.208 0-5.45-1.031-10.64-2.896-15.399 26.069 8.627 48.918 25.746 64.577 49.227z"/><circle cx="292" cy="256" r="10"/></g></g></svg>