<svg id="Capa_1" enable-background="new 0 0 512 512" height="512" viewBox="0 0 512 512" width="512" xmlns="http://www.w3.org/2000/svg"><g><g><path d="m442 276h-80v60c0 8.29-2.53 15.99-6.84 22.38 3.21-1.46 7-2.38 11.84-2.38 22.5 0 22.5 20 45 20s22.5-20 45-20 22.5 20 45 20v-40c0-33.14-26.86-60-60-60z" fill="#ffda8f"/><g fill="#eefaff"><circle cx="422" cy="276" r="20"/><path d="m402 136c-35.54 0-67.48 15.45-89.43 40.01l-.01-.01h-56.56c-26.13 0-48.35 16.69-56.59 40h-49.41c-22.09 0-40 17.91-40 40-55.23 0-100 44.77-100 100v20h312c22.157 0 40-17.98 40-40 0-14.58 0-54.816 0-70.56 0-54.81 30.97-104.93 80-129.44z"/></g></g><g><path d="m450.459 266.529c-3.975-11.913-15.226-20.529-28.459-20.529-13.036 0-24.152 8.361-28.28 20h-21.72v-.56c0-51.361 28.536-97.533 74.472-120.496 4.148-2.073 6.326-6.728 5.261-11.241s-5.095-7.703-9.733-7.703h-40c-35.431 0-69.348 14.532-93.775 40h-52.225c-27.191 0-51.768 15.811-63.252 40h-42.748c-24.278 0-44.561 17.396-49.061 40.376-56.431 4.623-100.939 52.021-100.939 109.624v20c0 5.522 4.478 10 10 10h312c15.477 0 29.976-7.148 39.445-19.284 1.656-.473 3.46-.716 5.555-.716 7.448 0 10.793 2.974 15.856 7.474 5.948 5.287 14.092 12.526 29.144 12.526s23.196-7.239 29.144-12.526c5.063-4.5 8.408-7.474 15.856-7.474s10.793 2.974 15.856 7.474c5.948 5.287 14.092 12.526 29.144 12.526 5.522 0 10-4.478 10-10v-40c0-35.733-26.92-65.279-61.541-69.471zm-350.459 69.471c0 16.542-13.458 30-30 30h-50v-10c0-46.246 35.063-84.451 80-89.441zm86-100v100c0 16.542-13.458 30-30 30h-46.027c6.292-8.363 10.027-18.752 10.027-30v-80c0-16.542 13.458-30.01 30-30.01l36.723.01c-.472 3.297-.723 6.634-.723 10zm236 30c5.514 0 10 4.486 10 10s-4.486 10-10 10-10-4.486-10-10 4.486-10 10-10zm-70-.56v70.56c0 16.739-13.612 30-30 30h-40.027c6.292-8.363 10.027-18.752 10.027-30v-25c0-5.522-4.478-10-10-10s-10 4.478-10 10v25c0 16.542-13.458 30-30 30h-46.027c6.292-8.363 10.027-18.752 10.027-30v-100c0-5.725.955-11.334 2.838-16.667 7.049-19.938 26.001-33.343 47.162-33.343l36.473.01c-6.441 10.066-11.514 21.016-14.948 32.398-1.596 5.287 1.397 10.867 6.685 12.462 5.282 1.596 10.866-1.396 12.462-6.685 13.788-45.692 56.281-78.185 105.328-78.185h6.366c-35.465 29.199-56.366 72.937-56.366 119.45zm140 97.812c-1.935-1.24-3.746-2.851-5.856-4.726-5.948-5.287-14.092-12.526-29.144-12.526s-23.196 7.239-29.144 12.526c-5.063 4.5-8.408 7.474-15.856 7.474s-10.793-2.974-15.856-7.474c-5.402-4.802-12.636-11.197-25.195-12.333.691-3.329 1.051-6.74 1.051-10.193v-50h21.72c4.128 11.639 15.243 20 28.28 20 12.791 0 23.731-8.049 28.038-19.345 23.761 3.857 41.962 24.512 41.962 49.345z"/><circle cx="282" cy="266" r="10"/></g></g></svg>