<?xml version="1.0" encoding="UTF-8"?>
<svg xmlns="http://www.w3.org/2000/svg" viewBox="0 0 512 512" width="512" height="512"><g id="Fill_out_line" data-name="Fill out line"><path d="M112,408c0-64,32-104,32-144s-24-64-24-136S208,24,248,24s64,16,80,40c32,0,56,24,56,128,0,72-40,72-40,120,0,32,0,48,16,72s8,48-16,40Z" style="fill:#795033"/><path d="M416,496H96c0-116.84009,47.4-150.73,84.51-166.56006,9.43994-4.03,18.21-6.88989,25.37-9.6499,1.27991-.49,2.51-.99,3.68006-1.48C218.40991,314.58,224,310.68994,224,304c0-32-56-32-56-88V136c0-32,19.71-72,96-72,112,0,88,80,88,112l3.03-3.03a16.97056,16.97056,0,0,1,28.97,12v3.54a16.96876,16.96876,0,0,1-10.66992,15.76l-26.55,10.62C331.51,265.23,288,271.02,288,304c0,6.68994,5.59009,10.58,14.43994,14.31006,1.17005.49,2.40015.99,3.68006,1.48,7.16,2.76,15.93,5.61987,25.37,9.6499C368.6,345.27,416,379.15991,416,496Z" style="fill:#f5a971"/><path d="M416,496H96c0-116.84009,47.4-150.73,84.51-166.56006,2-.86,3.98-1.65991,5.90991-2.41992,2.66016-1.04,5.24-2.01,7.72009-2.91,4.24-1.54993,8.19007-2.95008,11.74-4.32a63.98475,63.98475,0,0,0,100.24,0c3.54992,1.36987,7.5,2.77,11.74,4.32,2.4801.9,5.05993,1.87,7.72009,2.91,1.92993.76,3.90991,1.55994,5.90991,2.41992C368.6,345.27,416,379.15991,416,496Z" style="fill:#f57a08"/><path d="M232,240l40-8,8,8S248,272,232,240Z" style="fill:#e37066"/><path d="M168,128c37.81249-30.25,97.07169-24.75506,137.22993-17.30565C301.15254,141.1268,314.12164,176,352,176l20.32023-77.2869L328,64,262.0313,49.66667,168,64Z" style="fill:#795033"/><path d="M209.56006,318.31006C230.09009,402.43994,232.66992,454.49,232.97,496H96C96,344.13,176.08008,332.40991,209.56006,318.31006Z" style="fill:#03999c"/><path d="M416,496H279.03c.3-41.51,2.87988-93.56006,23.40991-177.68994C335.91992,332.40991,416,344.13,416,496Z" style="fill:#03999c"/><path d="M232.97,496H216c0-40-32-104-32-104l16-24-24-16,4.51-22.56006c11.13-4.75,21.33008-7.87988,29.05005-11.12988C230.09009,402.43994,232.66992,454.49,232.97,496Z" style="fill:#0c6c71"/><path d="M312,368l16,24s-32,64-32,104H279.03c.3-41.51,2.87988-93.56006,23.40991-177.68994,7.72,3.25,17.92005,6.37988,29.05005,11.12988L336,352Z" style="fill:#0c6c71"/><path d="M360,384c16,24,8,48-16,40s-56-40-56-120c0-32.98,43.51-38.77,58.78-89.11l26.55005-10.62A16.98776,16.98776,0,0,0,383.99,189.18994c.01.93006.01,1.87012.01,2.81006,0,72-40,72-40,120C344,344,344,360,360,384Z" style="fill:#795033"/><path d="M240,220a4,4,0,0,0,0-8h-4a8,8,0,0,1,0-16h4a4,4,0,0,0,0-8h-4a16,16,0,0,0,0,32Z"/><path d="M215.03967,159.68018l-18.3717-6.11731a8,8,0,0,0-8.18872,1.93786l-5.66406,5.6731A4,4,0,0,0,185.646,168h28.04492a4.26922,4.26922,0,0,0,1.34875-8.31982Z"/><path d="M291.52075,155.50073a8,8,0,0,0-8.18872-1.93786l-18.3717,6.11731A4.26922,4.26922,0,0,0,266.30908,168H294.354a4,4,0,0,0,2.83081-6.82617Z"/><path d="M200,176a7.99929,7.99929,0,0,0-7.59473,5.49658c-.56982-.17541-1.12805-.36255-1.65771-.57751a8.64517,8.64517,0,0,1-3.23792-2.12586A4.00307,4.00307,0,0,1,186.58337,176v-.02234l-.00012-.022A2.58341,2.58341,0,1,0,181.41663,176a8.8894,8.8894,0,0,0,.69458,3.36536,8.1715,8.1715,0,0,0,2.02172,2.82177,11.82489,11.82489,0,0,0,5.396,2.64844,19.43162,19.43162,0,0,0,2.58093.43128A7.9959,7.9959,0,1,0,200,176Z"/><path d="M280,176a7.99929,7.99929,0,0,0-7.59473,5.49658c-.56982-.17541-1.128-.36255-1.65771-.57751a8.64517,8.64517,0,0,1-3.23792-2.12586A4.00307,4.00307,0,0,1,266.58337,176v-.02234l-.00012-.022A2.58341,2.58341,0,1,0,261.41663,176a8.8894,8.8894,0,0,0,.69458,3.36536,8.1715,8.1715,0,0,0,2.02172,2.82177,11.82489,11.82489,0,0,0,5.396,2.64844,19.43162,19.43162,0,0,0,2.58093.43128A7.9959,7.9959,0,1,0,280,176Z"/><path d="M274.82861,229.17139a4.002,4.002,0,0,0-3.61328-1.09375l-40,8a4.0002,4.0002,0,0,0-2.793,5.71142c4.69336,9.38623,11.18555,14.813,19.29639,16.1294a23.73156,23.73156,0,0,0,3.80664.30127c15.71631,0,30.62744-14.71534,31.30322-15.39112a4.00088,4.00088,0,0,0,0-5.65722ZM249,250.02148c-4.15918-.6748-7.68262-3.04589-10.67773-7.20654l32.36279-6.47265,3.51123,3.51074C268.43555,244.63477,257.91064,251.46973,249,250.02148Z"/><path d="M152.314,469.87646C145.98145,462.564,140,455.65723,140,440c0-22.06738,9.37793-31.55859,22.35791-44.69531l.48779-.49365a4,4,0,0,0-5.6914-5.62208l-.48731.49317C143.43115,403.07764,132,414.647,132,440c0,18.64014,7.5791,27.39209,14.2666,35.11328C151.70459,481.39307,156,486.353,156,496h8C164,483.37012,158.05908,476.51025,152.314,469.87646Z"/><path d="M385.16016,358.144a123.01675,123.01675,0,0,0-32.9961-27.37744C352,325.14209,352,318.9668,352,312c0-19.103,6.875-29.21533,15.58887-42.03223C378.46484,254.00146,392,234.13037,392,192c0-50.1792-5.53467-85.08887-16.92139-106.72559-9.67529-18.37255-23.69775-27.93017-42.79882-29.14111C312.8374,29.13379,285.23486,16,248,16c-20.70215,0-54.47754,8.11133-83.2666,26.23242C121.14893,69.66992,112,104.01758,112,128c0,42.46094,7.95215,68.18555,14.97559,90.90625C131.81787,234.58984,136,248.13428,136,264c0,16.2627-5.89062,32.95312-12.71143,52.2793l-.0874.248c-7.92285,22.4502-16.8916,47.86524-18.811,79.17041C93.3623,422.53613,88,455.36133,88,496h12c0-107.16431,40.04382-142.83313,75.061-159.70166l-2.9834,14.917a3.99989,3.99989,0,0,0,1.70361,4.11279l20.67187,13.78126-13.78124,20.67187a3.99868,3.99868,0,0,0-.24952,4.00732C180.73779,394.42041,212,457.41357,212,496h8c0-17.07715-5.47119-40.09814-16.26221-68.42383-6.31445-16.57617-12.70556-30.21728-15.13672-35.2666l14.72705-22.09082a3.99951,3.99951,0,0,0-1.10937-5.54687l-21.771-14.51417,3.57142-17.85668c5.3905-2.23316,10.55529-4.10669,15.309-5.82935,2.57593-.93335,5.063-1.83545,7.42627-2.74194C226.762,407.23657,228.77368,459.8208,228.9762,496h8.00036c-.17187-31.21631-1.66736-74.5293-14.69128-139.07544a83.88776,83.88776,0,0,0,67.35742.036l.02527.10706C277.44336,417.49146,275.33521,459.35962,275.04224,496h8.00146a666.85069,666.85069,0,0,1,11.56836-122.34131c6.30461,17.758,15.47127,30.133,20.97852,35.85486C306.31042,431.11865,292,468.84131,292,496h8c0-24.63928,12.73584-59.17273,21.74548-80.51965a62.70716,62.70716,0,0,0,20.98987,12.31457c10.72608,3.57666,20.88965,1.89258,26.19068-6.73633A52.81591,52.81591,0,0,1,372,440c0,15.65723-5.98145,22.564-12.314,29.87646C353.94092,476.51025,348,483.37012,348,496h8c0-9.647,4.29541-14.60693,9.7334-20.88672C372.4209,467.39209,380,458.64014,380,440c0-11.88306-2.471-21.55334-7.74426-30.31177.41455-8.4646-2.63477-18.46789-8.92762-27.907-9.431-14.14661-13.05566-25.14453-14.45153-38.99243A110.4754,110.4754,0,0,1,376,365.896c24.22461,28.62109,36,71.17871,36,130.104h12C424,434.11621,411.29541,389.023,385.16016,358.144ZM196.60254,318.9502c-19.07715,6.91308-45.2041,16.38085-66.70606,41.7788a126.6333,126.6333,0,0,0-11.18164,15.50855c3.52735-20.89282,9.95386-39.14478,15.80225-55.71655l.0874-.24756C141.79248,299.90674,148,282.31787,148,264c0-17.67627-4.42969-32.02246-9.56738-48.66211C131.66748,193.45312,124,168.64844,124,128c0-37.97412,25.62744-62.07861,47.126-75.6123C197.89062,35.541,229.021,28,248,28c34.09375,0,58.98975,12.229,76.10986,37.38525a5.9986,5.9986,0,0,0,4.86328,2.62354c16.35743.26465,27.30225,7.31445,35.48731,22.856,8.6333,16.40478,13.6,41.827,15.0708,77.309a20.89972,20.89972,0,0,0-27.33057,1.96838l-1.83447,1.83447c-12.3418-.354-22.28857-4.75342-29.583-13.08984C310,147,302.1875,118.3125,315.57764,89.78906a4,4,0,0,0-7.15528-3.57812,74.58667,74.58667,0,0,0-6.50879,19.82324c-24.94726-4.391-46.61718-5.97632-66.11669-4.835-28.87452,1.69092-52.36475,9.52978-69.81836,23.29785a4.00208,4.00208,0,0,0-1.49854,2.70215A80.70828,80.70828,0,0,0,164,136v80c0,33.88232,19.62158,48.71533,35.38818,60.6333C210.9043,285.33887,220,292.21436,220,304,220,310.17139,211.54541,313.53516,196.60254,318.9502ZM256,356a75.90327,75.90327,0,0,1-35.76514-8.96411q-1.12243-5.26868-2.3479-10.72217a68.01346,68.01346,0,0,0,68.65039,4.44849q.61671,4.17846,1.37781,8.20044A74.96707,74.96707,0,0,1,256,356Zm28-52a264.34406,264.34406,0,0,0,1.46,28.27783,59.99279,59.99279,0,0,1-70.47241-8.50122q-.37739-1.58753-.76257-3.18848C222.52747,316.64819,228,311.94531,228,304c0-15.7666-11.55469-24.501-23.7876-33.74854C189.11328,258.83789,172,245.90137,172,216V136c0-2.09082.08984-4.187.26807-6.25195,27.38818-20.69141,70.6206-25.99561,128.57275-15.78272-1.74609,19.56153,3.34717,38.10352,13.92188,50.18946C323.83252,174.52051,336.709,180,352,180a4.00116,4.00116,0,0,0,2.82861-1.17139l3.0293-3.02929a12.96157,12.96157,0,0,1,22.09082,8.15844q.02967,2.39118.04053,4.83741a12.89992,12.89992,0,0,1-8.14307,11.758l-26.55322,10.624a3.99974,3.99974,0,0,0-2.3418,2.55273c-7.498,24.71777-22.05224,38.21-34.89355,50.11377C295.14893,275.81055,284,286.14551,284,304Zm72.67188,82.21875c9.26318,13.89453,9.04687,26.02979,4.92626,31.4248-3.144,4.11426-8.94335,5.02393-16.33349,2.56153C325.875,413.5,300.375,390.375,293.67542,333.81006l-.00354-.03174A253.29024,253.29024,0,0,1,292,304c0-14.36182,9.48633-23.15576,21.49658-34.28955,12.61328-11.69287,28.23877-26.17627,36.53125-51.811l24.78955-9.91845a21.13482,21.13482,0,0,0,4.65821-2.59717c-2.4021,29.3418-12.64051,44.37451-21.8208,57.852C348.57568,276.59033,340,289.2041,340,312,340,343.73145,340,361.21094,356.67188,386.21875Z"/></g></svg>
