<svg id="Capa_1" enable-background="new 0 0 512 512" height="512" viewBox="0 0 512 512" width="512" xmlns="http://www.w3.org/2000/svg"><g><g><path d="m189.666 469.03 21.361 17.735-21.361 17.735h-67.914c0-12.886 1.34-24.69 3.647-35.47l32.133-19.243z" fill="#ffdcce"/><path d="m125.399 469.03c-2.307 10.78-3.648 22.583-3.648 35.47h20c0-12.886 1.34-24.69 3.648-35.47z" fill="#ffcabd"/><path d="m189.666 375.747 17.68 29.375-17.68 25.423-32.133 19.243-18.261-19.243c20.122-38.275 50.394-54.798 50.394-54.798z" fill="#ffdcce"/><path d="m159.271 430.545c11.313-21.517 25.832-36.159 36.378-44.856l-5.984-9.942s-30.271 16.524-50.395 54.798z" fill="#ffcabd"/><path d="m189.666 430.545 21.361 19.243-21.361 19.243h-64.267c3.15-14.705 8.09-27.495 13.872-38.485h50.395z" fill="#ff748f"/><path d="m139.271 430.545c-5.782 10.99-10.722 23.781-13.872 38.485h20c3.15-14.705 8.09-27.495 13.872-38.485z" fill="#fd5f7e"/><path d="m322.334 469.03-21.361 17.735 21.361 17.735h67.914c0-12.886-1.34-24.69-3.647-35.47l-32.133-19.243z" fill="#ffdcce"/><path d="m322.334 375.747-17.68 29.375 17.68 25.423 32.133 19.243 18.261-19.243c-20.122-38.275-50.394-54.798-50.394-54.798z" fill="#ffdcce"/><g fill="#ff748f"><path d="m322.334 430.545-21.361 19.243 21.361 19.243h64.267c-3.15-14.705-8.09-27.495-13.872-38.485h-50.395z"/><path d="m128.24 303.404c-27.191 24.517-61.879 37.833-81.543 43.896-8.119 2.503-12.237 11.524-8.85 19.316l9.538 21.939c3.129 7.198 11.468 10.479 18.702 7.435 48.89-20.574 81.362-70.799 81.362-70.799z"/><path d="m383.76 303.404c27.191 24.517 61.879 37.833 81.543 43.896 8.119 2.503 12.237 11.524 8.85 19.316l-9.538 21.939c-3.129 7.198-11.468 10.479-18.702 7.435-48.89-20.574-81.362-70.799-81.362-70.799z"/></g><path d="m45.75 217.539c0-110.411 95.399-210.039 210.25-210.039s210.25 99.628 210.25 210.039z" fill="#5bd6fd"/><path d="m276 8.524c-6.591-.668-13.26-1.024-20-1.024-114.851 0-210.25 99.628-210.25 210.039h40c0-103.932 84.534-198.296 190.25-209.015z" fill="#00c4fc"/><circle cx="431.345" cy="236.686" fill="#ffcabd" r="41.096"/><path d="m189.666 375.747h132.669v128.753h-132.669z" fill="#5bd6fd"/><circle cx="258.826" cy="389.032" fill="#ffcabd" r="37.67"/><path d="m383.76 303.404-19.21 21.787s11.724 18.127 31.683 37.063c1.125-1.091 2.241-2.194 3.345-3.315 8.816-8.951 16.684-18.593 23.581-28.79-13.279-6.87-27.104-15.659-39.399-26.745z" fill="#fd5f7e"/><path d="m147.45 325.191-19.21-21.787c-12.257 11.052-26.036 19.821-39.277 26.682 7.708 11.359 16.623 22.024 26.696 31.809.08.078.162.152.243.23 19.877-18.888 31.548-36.934 31.548-36.934z" fill="#fd5f7e"/><path d="m257.666 115.526c-.403.447-.804.899-1.202 1.358-.246.283-.682.283-.927 0-.398-.458-.799-.911-1.201-1.357-41.481-46.013-116.142-37.146-147.064 16.535-15.215 26.414-23.595 57.262-22.725 90.13 2.479 93.622 80.638 168.353 174.28 166.84 93.422-1.509 168.69-77.711 168.69-171.493 0-30.865-8.154-59.824-22.424-84.844-30.845-54.079-105.741-63.41-147.427-17.169z" fill="#ffdcce"/><path d="m114.546 222.192c-.87-32.869 7.51-63.716 22.725-90.13 14.629-25.396 39.048-40.755 65.111-45.025-36.076-5.968-74.919 9.971-95.111 45.025-11.089 19.251-18.525 40.864-21.418 63.89-1.645-.231-3.371-.363-5.198-.363-22.697 0-41.096 18.4-41.096 41.097s18.4 41.096 41.096 41.096c5.345 0 9.887-1.031 13.723-2.888 24.063 67.407 89.258 115.353 164.448 114.138 4.112-.066 8.186-.286 12.223-.637-85.561-7.501-154.183-78.575-156.503-166.203z" fill="#ffcabd"/><path d="m428.075 161.087c-2.959-8.995-11.362-15.074-20.831-15.074h-302.488c-9.469 0-17.872 6.079-20.831 15.074-5.845 17.771-9.016 36.747-9.016 56.449 0 10.049.825 19.908 2.41 29.514 1.746 10.583 10.906 18.344 21.632 18.344h38.668c10.441 0 20.618-3.286 29.088-9.392l40.327-29.073c8.47-6.106 18.646-9.392 29.088-9.392h39.757c10.441 0 20.618 3.286 29.088 9.392l40.327 29.073c8.47 6.106 18.646 9.392 29.088 9.392h38.668c10.726 0 19.886-7.76 21.632-18.344 1.585-9.606 2.41-19.465 2.41-29.514-.001-19.702-3.172-38.678-9.017-56.449z" fill="#ff748f"/><path d="m107.319 247.05c-1.585-9.606-2.41-19.465-2.41-29.514 0-19.703 3.171-38.679 9.016-56.45 2.959-8.995 11.362-15.074 20.831-15.074h-30c-9.469 0-17.872 6.079-20.831 15.074-5.845 17.771-9.016 36.747-9.016 56.45 0 10.049.825 19.907 2.41 29.514 1.746 10.583 10.906 18.344 21.632 18.344h30c-10.726 0-19.886-7.761-21.632-18.344z" fill="#fd5f7e"/><g><ellipse cx="255.986" cy="259.969" fill="#423e4f" rx="17.986" ry="20.627"/></g></g><g><path d="m189.35 202.178c-3.125-2.717-7.862-2.389-10.581.737-4.462 5.129-12.345 4.988-16.688.016-2.724-3.12-7.461-3.441-10.582-.717-3.12 2.724-3.441 7.462-.717 10.582 10.56 12.095 29.099 11.696 39.304-.037 2.72-3.126 2.389-7.863-.736-10.581z"/><path d="m341.504 221.565c7.533-.007 14.692-3.275 19.644-8.968 2.719-3.125 2.389-7.862-.736-10.581-3.125-2.717-7.862-2.389-10.581.737-4.385 5.04-12.231 5.118-16.688.016-2.724-3.121-7.462-3.441-10.583-.717-3.12 2.725-3.441 7.462-.716 10.582 8.366 9.582 19.76 8.953 19.66 8.931z"/><path d="m255.958 231.842c-14.444.014-25.474 12.972-25.46 28.151.015 15.501 11.447 28.103 25.491 28.103h.022c22.499-.021 33.787-29.961 18.326-47.66-8.172-9.353-18.479-8.616-18.379-8.594zm.039 41.255c-.003 0-.005 0-.008 0-5.778 0-10.484-5.882-10.491-13.118-.01-10.99 10.646-17.567 17.542-9.673 7.061 8.081 2.477 22.782-7.043 22.791z"/><path d="m457.736 385.565c-1.473 3.386-5.472 4.961-8.915 3.512-7.739-3.256-15.587-7.552-23.327-12.769-3.435-2.314-8.096-1.406-10.411 2.028s-1.407 8.096 2.028 10.411c8.545 5.759 17.257 10.521 25.891 14.155 11 4.63 23.768-.498 28.489-11.357l9.538-21.938c5.182-11.919-1.168-25.665-13.518-29.474-15.814-4.876-38.444-13.546-59.769-27.708 5.588-8.912 10.395-18.301 14.337-28.041 30.113 5.836 57.861-17.333 57.861-47.699 0-8.685-2.276-16.865-6.284-23.953-2.723-111.691-99.357-212.732-217.657-212.732-38.557 0-76.824 10.984-110.663 31.765-3.53 2.168-4.634 6.786-2.466 10.316s6.786 4.634 10.316 2.466c31.476-19.33 67.029-29.547 102.813-29.547 104.286 0 189.843 84.387 201.414 180.635-4.24-2.723-9.546-5.014-14.927-6.261-1.308-8.643-5.248-27.086-8.822-34.359-5.595-11.469-15.985-14.553-16.09-14.618-3.089-6.455-6.714-13.197-10.769-19.017-34.762-49.894-106.917-58.469-150.806-14.971-45.126-44.718-122.367-35.138-155.228 21.908-2.279 3.956-4.649 8.537-6.343 12.077-.442.27-10.639 3.414-16.104 14.639-3.524 7.176-7.453 25.32-8.812 34.34-5.152 1.195-10.387 3.372-14.929 6.262 6.271-52.314 34.052-100.451 74.711-134.01 3.195-2.637 3.647-7.364 1.01-10.559-2.636-3.194-7.364-3.646-10.558-1.01-24.325 20.077-44.611 45.438-58.665 73.344-14.165 28.126-21.996 58.964-22.737 89.324-4.01 7.089-6.288 15.272-6.288 23.96 0 30.334 27.741 53.584 57.927 47.687 3.954 9.725 8.765 19.098 14.363 27.992-21.347 14.195-44.017 22.884-59.862 27.769-12.393 3.822-18.681 17.599-13.518 29.473l9.538 21.939c4.723 10.863 17.492 15.985 28.489 11.357 28.97-12.191 52.263-33.903 67.949-51.934 11.362 10.161 24.1 18.928 37.678 25.933-36.808 28.244-60.372 73.241-60.372 127.599 0 4.142 3.358 7.5 7.5 7.5h268.497c4.142 0 7.5-3.358 7.5-7.5 0-54.299-23.648-99.351-60.248-127.503 13.535-6.95 26.229-15.654 37.675-25.896 5.67 6.496 11.623 12.649 17.769 18.35 3.038 2.817 7.783 2.639 10.599-.397 2.817-3.037 2.639-7.782-.398-10.6-5.948-5.519-11.711-11.49-17.19-17.81 4.74-5.005 9.2-10.291 13.336-15.806 22.858 15.206 46.981 24.443 63.801 29.629 3.844 1.185 5.792 5.453 4.182 9.159zm-221.616-175.529c-11.669 0-23.327 3.494-33.474 10.808l-40.327 29.074c-7.237 5.218-15.779 7.976-24.702 7.976-36.738-.31-39.276.846-43.998-1.035 0 0-.001 0-.002 0-4.738-1.889-8.099-6.177-8.9-11.03-4.197-25.428-2.723-52.119 4.838-77.601 1.418-4.773 1.831-5.92 2.572-7.256 2.461-4.446 7.257-7.458 12.627-7.458h302.488c6.287 0 11.803 4.131 13.706 9.917 5.245 16.068 8.113 32.407 8.571 49.451.39 14.639-1.466 30.014-2.484 34.101-1.094 4.417-4.225 8.098-8.63 9.865-4.551 1.824-4.638.719-44.027 1.047-8.922 0-17.464-2.758-24.701-7.976-62.922-44.345-43.931-39.883-113.557-39.883zm191.068 59.991c.049-.159.263-.864.267-.875 13.356-7.469 14.705-21.366 14.625-20.881 2.399-14.535 3.006-29.186 2.136-42.64 12.234 5.062 20.725 17.166 20.725 31.054 0 20.195-17.739 35.819-37.753 33.342zm-177.315-148.225c2.752 3.169 6.624 2.793 6.126 2.793 3.921 0 5.721-2.365 7.236-4.047 37.142-41.198 106.826-35.972 136.508 17.965h-287.489c30.042-54.659 100.716-59.216 137.619-16.711zm-165.019 148.22c-35.535 4.428-52.551-43.084-21.811-61.965 1.483-.913 3.373-1.865 4.74-2.424-1.074 16.526.658 36.434 2.498 44.444 1.904 8.329 7.217 15.155 14.317 19.106.011.038.244.801.256.839zm-21.677 119.055c-3.445 1.45-7.443-.126-8.915-3.512l-9.538-21.939c-1.61-3.703.335-7.972 4.182-9.158 16.861-5.198 41.039-14.46 63.93-29.714 4.347 5.777 9.325 11.536 13.323 15.75-12.92 14.895-35.336 36.939-62.982 48.573zm266.656 72.453c0-3.207 0-17.089 0-23.485h38.283c3.632 7.486 6.611 15.344 8.904 23.485zm-41.184-67.928c-2.209 14.475-14.741 25.6-29.824 25.6-14.751 0-27.063-10.642-29.663-24.65 19.665 2.958 39.905 2.635 59.487-.95zm-144.767 44.443h38.283v23.485h-47.187c2.293-8.141 5.271-15.999 8.904-23.485zm38.282-47.947v32.947h-29.812c10.122-15.574 21.596-26.395 29.812-32.947zm-50.576 86.433h50.577v20.469h-52.752c.302-6.979 1.03-13.825 2.175-20.469zm65.576-89.915c5.436 1.905 10.961 3.544 16.563 4.907 1.298 23.752 21.027 42.679 45.098 42.679 24.553 0 44.579-19.695 45.143-44.115 3.66-1.012 7.283-2.139 10.865-3.384v110.298h-117.669c0-15.096 0-110.385 0-110.385zm132.669 110.384v-20.469h50.577c1.145 6.644 1.873 13.49 2.175 20.469zm29.813-73.955h-29.812v-32.946c8.218 6.554 19.691 17.374 29.812 32.946zm-220.274-90.469c-16.717-16.963-29.682-37.417-37.742-59.682h35.988c12.09 0 23.665-3.737 33.474-10.809l16.515-11.906c24.027-17.169 24.269-17.849 28.743-20.228 6.066-3.225 12.801-4.916 19.771-4.916h39.757c8.922 0 17.464 2.758 24.702 7.976l40.328 29.074c9.808 7.071 21.383 10.808 33.474 10.808h36.048c-40.592 112.738-185.633 146.435-271.058 59.683z"/></g></g></svg>