<svg id="Capa_1" enable-background="new 0 0 512 512" height="512" viewBox="0 0 512 512" width="512" xmlns="http://www.w3.org/2000/svg"><g><path d="m11.365 240c-5.926 0-10.574-5.128-9.955-11.022 13.499-128.682 122.332-228.978 254.59-228.978s241.091 100.296 254.591 228.978c.618 5.894-4.029 11.022-9.955 11.022z" fill="#40c1fa"/><path d="m39.937 376.139c-5.456 1.139-10.98-1.627-13.454-6.62-16.953-34.21-26.483-72.752-26.483-113.519 0-9.58.526-19.037 1.552-28.344 6.511 1.533 13.301 2.344 20.28 2.344 15.927 0 30.869-4.223 43.765-11.611 21.197-12.144 47.386-12.144 68.583 0 12.895 7.388 27.836 11.611 43.764 11.611s30.869-4.223 43.764-11.611c21.197-12.144 47.386-12.144 68.583 0 12.897 7.388 27.838 11.611 43.765 11.611s30.869-4.223 43.765-11.611c21.197-12.144 47.386-12.144 68.583 0 12.896 7.388 27.837 11.611 43.764 11.611 6.979 0 13.769-.811 20.28-2.344 1.026 9.307 1.552 18.764 1.552 28.344 0 40.736-9.515 79.249-26.443 113.439-2.496 5.041-8.074 7.836-13.58 6.682-9.051-1.898-17.591-5.185-25.388-9.627-21.472-12.232-47.897-11.815-69.447.279-12.74 7.15-27.437 11.227-43.086 11.227-15.928 0-30.869-4.223-43.765-11.611-21.197-12.144-47.386-12.143-68.583 0-12.896 7.388-27.837 11.611-43.764 11.611-15.649 0-30.346-4.077-43.087-11.227-21.549-12.094-47.974-12.511-69.445-.279-7.822 4.456-16.392 7.749-25.475 9.645z" fill="#07a9f0"/><path d="m25.695 367.917c14.479-.625 28.053-4.74 39.901-11.528 21.197-12.144 47.386-12.144 68.584 0 12.895 7.387 27.836 11.611 43.764 11.611 15.927 0 30.869-4.224 43.764-11.611 21.197-12.144 47.386-12.144 68.583 0 12.897 7.387 27.838 11.611 43.765 11.611s30.868-4.224 43.764-11.611c21.197-12.144 47.386-12.144 68.584 0 11.848 6.788 25.422 10.903 39.901 11.528-17.148 35.222-42.139 65.923-72.699 89.831-43.451-33.992-98.162-54.253-157.605-54.253s-114.155 20.261-157.605 54.253c-30.562-23.909-55.553-54.609-72.701-89.831z" fill="#0691ce"/><path d="m363 305v60c0 30.375-24.624 55-55 55-24.086 0-44.555-15.482-52-37.038-7.445 21.556-27.914 37.038-52 37.038-30.376 0-55-24.625-55-55v-60c0-30.375 24.624-55 55-55 24.086 0 44.555 15.482 52 37.038 7.445-21.556 27.914-37.038 52-37.038 30.376 0 55 24.625 55 55z" fill="#ffc14f"/><path d="m220.25 417.56c-5.136 1.586-10.593 2.44-16.25 2.44-30.376 0-55-24.625-55-55v-60c0-30.375 24.624-55 55-55 5.657 0 11.114.854 16.25 2.44-22.443 6.931-38.75 27.841-38.75 52.56v60c0 24.719 16.307 45.629 38.75 52.56z" fill="#ffb52d"/><path d="m366 142.473v40c0 60.751-49.249 110-110 110-60.751 0-110-49.249-110-110v-40c0-60.751 49.249-110 110-110 60.751 0 110 49.249 110 110z" fill="#faa68e"/><path d="m366 142.473v40c0 50.792-34.425 93.543-81.216 106.195-9.023 2.44-18.545 2.44-27.568 0-46.791-12.652-81.216-55.403-81.216-106.195v-40c0-55.663 41.345-101.669 95-108.985 53.655 7.316 95 53.322 95 108.985z" fill="#ffbeaa"/><path d="m326.763 76h-74.388c-21.539 0-39-17.461-39-39h74.388c21.539 0 39 17.461 39 39z" fill="#dd7d00"/><path d="m256 252.473c-16.569 0-30-13.431-30-30 0-4.142 3.358-7.5 7.5-7.5h45c4.142 0 7.5 3.358 7.5 7.5 0 16.569-13.431 30-30 30z" fill="#fff5f5"/><path d="m263.5 251.528c-2.397.617-4.91.945-7.5.945-16.568 0-30-13.431-30-30 0-4.142 3.358-7.5 7.5-7.5h15c-4.142 0-7.5 3.358-7.5 7.5 0 13.979 9.561 25.724 22.5 29.055z" fill="#dce6eb"/><path d="m126.107 476.645c-10.544-6.22-20.603-13.175-30.107-20.793v-73.378c0-38.66 31.34-70 70-70h44c-38.66 0-70 31.34-70 70v86.215c0 7.126-7.754 11.578-13.893 7.956z" fill="#453d83"/><path d="m346 312.473h-60v-12.368c51.571-13.313 89.667-60.145 89.667-115.875v-43.515c0-66.09-53.576-119.667-119.667-119.667-66.09 0-119.667 53.576-119.667 119.667v43.515c0 55.73 38.096 102.562 89.667 115.875v12.368h-30c-38.66 0-70 31.34-70 70v94.109c38.103 22.505 82.543 35.418 130 35.418 60.541 0 116.173-21.015 160-56.148v-73.378c0-38.661-31.34-70.001-70-70.001zm-188.271-150c0-63.887 43.998-115.678 98.271-115.678 54.274 0 98.271 51.791 98.271 115.678s-43.998 115.677-98.271 115.677c-54.274 0-98.271-51.79-98.271-115.677z" fill="#5f55af"/><path d="m176 436.667v62.585c-6.797-2.234-13.468-4.745-20-7.519v-55.066c0-5.523 4.477-10 10-10s10 4.477 10 10zm170-10c-5.523 0-10 4.477-10 10v62.585c6.797-2.234 13.468-4.745 20-7.519v-55.066c0-5.523-4.477-10-10-10zm-90.665-165.121c-5.315.344-9.335 4.995-9.335 10.321v2.811c-6.895-.048-14.87-.056-15.175-.363-34.748-17.83-73.096-64.372-73.096-111.841 0-47.47 24.291-88.262 59.04-106.091 16.577-16.688 38.041-28.515 62.065-33.156-7.303-1.411-14.842-2.158-22.553-2.176-65.973-.151-119.947 55.055-119.947 121.028v42.153c0 55.73 38.096 102.562 89.667 115.875.116.003.058 3.118 0 6.221v6.147c10.806.65 19.31 9.613 19.31 20.518l.689 147.007c0 5.743 4.842 10.355 10.666 9.979 5.315-.344 9.334-4.995 9.334-10.321v-208.134c0-5.743-4.841-10.355-10.665-9.978z" fill="#453d83"/><path d="m256.508 441h-1.328c-5.523 0-10-4.477-10-10v-22c0-5.523 4.477-10 10-10h1.328c5.523 0 10 4.477 10 10v22c0 5.523-4.477 10-10 10z" fill="#6a61b4"/><path d="m67.059 222.41c-9.615-9.908-9.378-25.736.531-35.351 9.909-9.616 25.736-9.378 35.351.531 9.615 9.908 9.378 25.736-.531 35.351-9.908 9.616-25.735 9.378-35.351-.531zm391.525-58.153c7.274-3.964 9.957-13.075 5.993-20.349s-13.075-9.957-20.349-5.993-9.957 13.075-5.993 20.349c3.964 7.275 13.075 9.958 20.349 5.993zm-370.951 100.893c-5.945 5.77-6.088 15.266-.318 21.211 5.769 5.945 15.266 6.087 21.211.318 5.945-5.77 6.088-15.266.318-21.211s-15.266-6.087-21.211-.318zm379.314-54.202c-6.607-12.124-21.791-16.595-33.915-9.988s-16.595 21.792-9.989 33.915c6.607 12.124 21.792 16.596 33.915 9.988 12.124-6.607 16.596-21.791 9.989-33.915z" fill="#d5f1fe"/><path d="m467.172 234.458c-12.054 6.286-26.972 1.78-33.504-10.207-4.136-7.589-3.93-16.376-.225-23.509 12.054-6.287 26.971-1.78 33.504 10.207 4.136 7.588 3.93 16.376.225 23.509zm-1.274-79.5c.959-3.586.596-7.533-1.321-11.05-3.381-6.203-10.503-9.067-17.038-7.318-.959 3.586-.596 7.533 1.32 11.05 3.381 6.203 10.504 9.068 17.039 7.318zm-371.689 106.462c-1.31 4.925-.078 10.394 3.729 14.317 3.919 4.039 9.557 5.399 14.635 4.049 1.31-4.924.078-10.394-3.729-14.317-3.919-4.038-9.557-5.4-14.635-4.049zm12.968-44.866c4.845-9.297 3.465-21.029-4.236-28.964-7.884-8.125-19.944-9.747-29.494-4.768-4.845 9.297-3.465 21.028 4.236 28.964 7.884 8.125 19.945 9.747 29.494 4.768z" fill="#fff5f5"/><path d="m326.842 100c18.283 0 33.158 17.944 33.158 40s-14.875 40-33.158 40h-143.684c-18.283 0-33.158-17.944-33.158-40s14.875-40 33.158-40z" fill="#2476ed"/><path d="m220 100h32.107v78.597h-32.107zm60 0v78.597h20v-78.597z" fill="#5596fb"/><path d="m270 300h-20c-11.046 0-20-8.954-20-20 0-11.046 8.954-20 20-20h20c11.046 0 20 8.954 20 20 0 11.046-8.954 20-20 20z" fill="#ffc14f"/><path d="m268.833 300h-18.833c-11.046 0-20-8.954-20-20s8.954-20 20-20h18.833c-11.046 0-20 8.954-20 20s8.955 20 20 20z" fill="#ffb52d"/><path d="m403.525 10v283.237c0 42.327-34.436 76.763-76.763 76.763s-76.762-34.436-76.762-76.763c0-5.522 4.478-10 10-10s10 4.478 10 10c0 31.299 25.464 56.763 56.763 56.763s56.763-25.464 56.763-56.763v-283.237c0-5.522 4.478-10 10-10s9.999 4.478 9.999 10z" fill="#ff9f22"/><path d="m417.667 15v50c0 8.284-6.716 15-15 15h-19c-8.284 0-15-6.716-15-15v-50c0-8.284 6.716-15 15-15h19c8.284 0 15 6.716 15 15z" fill="#ffb52d"/><path d="m417.667 15v50c0 8.284-6.716 15-15 15s-15-6.716-15-15v-50c0-8.284 6.716-15 15-15s15 6.716 15 15z" fill="#ffc14f"/><path d="m321 90h-130c-27.57 0-50 22.43-50 50s22.43 50 50 50h130c27.57 0 50-22.43 50-50s-22.43-50-50-50zm0 80h-130c-16.542 0-30-13.458-30-30s13.458-30 30-30h130c16.542 0 30 13.458 30 30s-13.458 30-30 30z" fill="#fff5f5"/><path d="m223.5 145c0 8.284-6.716 15-15 15s-15-6.716-15-15 6.716-15 15-15 15 6.716 15 15zm80-15c-8.284 0-15 6.716-15 15s6.716 15 15 15 15-6.716 15-15-6.716-15-15-15z" fill="#1c314e"/><path d="m226 137.5c0 4.142-3.358 7.5-7.5 7.5s-7.5-3.358-7.5-7.5 3.358-7.5 7.5-7.5 7.5 3.358 7.5 7.5zm87.5-7.5c-4.142 0-7.5 3.358-7.5 7.5s3.358 7.5 7.5 7.5 7.5-3.358 7.5-7.5-3.358-7.5-7.5-7.5z" fill="#fff5f5"/><path d="m270.5 189.205c-3.875 3.875-9.024 6.009-14.5 6.009s-10.625-2.134-14.5-6.009c-2.929-2.93-2.929-7.678 0-10.607 2.929-2.928 7.678-2.928 10.606 0 1.042 1.042 2.424 1.616 3.893 1.616s2.851-.574 3.893-1.616c2.929-2.928 7.678-2.928 10.606 0 2.931 2.929 2.931 7.677.002 10.607z" fill="#faa68e"/></g></svg>